<svg fill="none" viewBox="0 0 134 62"><path fill="#fff" d="M.433 60h17.05V1.4H.433V60zm40.323-19.5c.267 0 .683.017 1.25.05.6.033 1.167.067 1.7.1.533.033 1.15.067 1.85.1h2.3c.633 2.033 1.117 4.567 1.45 7.6.367 3 .65 5.583.85 7.75.2 2.133.483 3.433.85 3.9h18.45c-.7-.9-1.35-2.25-1.95-4.05-.567-1.8-1.083-3.617-1.55-5.45-.433-1.867-.95-3.7-1.55-5.5-.6-1.833-1.45-3.417-2.55-4.75-1.067-1.333-2.35-2.183-3.85-2.55 2.767-1.767 4.983-4.15 6.65-7.15 1.7-3 2.55-6.433 2.55-10.3 0-6.533-1.783-11.383-5.35-14.55-3.533-3.167-8.9-4.75-16.1-4.75-2.067 0-4.683.083-7.85.25-3.167.133-5.55.2-7.15.2h-6.6V60h16.6V40.5zm0-9.3V10.6h.95c2.833 0 5 .583 6.5 1.75 1.533 1.133 2.3 3.15 2.3 6.05v3.95c0 1.333-.1 2.5-.3 3.5-.2 1-.5 1.817-.9 2.45-.4.633-.833 1.15-1.3 1.55-.433.4-1 .7-1.7.9-.667.167-1.283.283-1.85.35-.567.067-1.267.1-2.1.1h-1.6zM72.796 60h17.05V1.4h-17.05V60zm41.323 1.05c6.167 0 10.867-1.717 14.1-5.15 3.267-3.467 4.9-8.5 4.9-15.1 0-4.067-1.15-7.517-3.45-10.35-2.266-2.833-5.833-5.283-10.7-7.35-.466-.3-1.166-.683-2.1-1.15-.9-.5-1.616-.917-2.15-1.25a28.19 28.19 0 01-1.65-1.2c-.6-.467-1.033-.983-1.3-1.55-.266-.567-.4-1.2-.4-1.9 0-2.667 2.134-4 6.4-4 1.767 0 3.617.383 5.55 1.15 1.967.733 3.6 1.867 4.9 3.4l2.5-9.65a4.856 4.856 0 00-.5-.65c-.233-.3-.8-.8-1.7-1.5a14.491 14.491 0 00-2.9-1.9c-1.066-.533-2.55-1.017-4.45-1.45-1.866-.467-3.866-.7-6-.7-13.433 0-20.15 5.95-20.15 17.85 0 2.2.334 4.267 1 6.2.667 1.9 1.434 3.467 2.3 4.7.867 1.2 1.984 2.367 3.35 3.5 1.4 1.1 2.517 1.9 3.35 2.4.834.467 1.85 1 3.05 1.6 3.3 1.6 5.617 2.967 6.95 4.1 1.367 1.133 2.05 2.5 2.05 4.1 0 1.5-.6 2.533-1.8 3.1-1.166.567-3.083.85-5.75.85-2.666 0-5.15-.667-7.45-2-2.3-1.367-4.133-2.967-5.5-4.8L95.32 54.5c.634.667 1.417 1.333 2.35 2 .967.667 2.2 1.367 3.7 2.1 1.5.733 3.35 1.317 5.55 1.75 2.234.467 4.634.7 7.2.7z"/></svg>